<svg data-v-fde0c5aa="" xmlns="http://www.w3.org/2000/svg" viewBox="0 0 300 300" class="iconLeft"><!----><defs data-v-fde0c5aa=""><!----></defs><rect data-v-fde0c5aa="" fill="#282a36" x="0" y="0" width="300px" height="300px" class="logo-background-square"></rect><defs data-v-fde0c5aa=""><linearGradient data-v-fde0c5aa="" gradientTransform="rotate(25)" id="fe5144a6-81b8-43ff-9f35-fa1cfd67c4ce" x1="0%" y1="0%" x2="100%" y2="0%"><stop data-v-fde0c5aa="" offset="0%" stop-color="#bd93f9	" stop-opacity="1"></stop><stop data-v-fde0c5aa="" offset="100%" stop-color="#8be9fd	" stop-opacity="1"></stop></linearGradient></defs><g data-v-fde0c5aa="" id="923f47af-0b31-4da4-8a06-ad227324b3d9" fill="url(#fe5144a6-81b8-43ff-9f35-fa1cfd67c4ce)" transform="matrix(6.587923283203681,0,0,6.587923283203681,177.71684166399615,115.38046389602968)"><path d="M4.13 6.50L2.31 6.50L3.08 1.29L3.35 1.29ZM1.16 1.29L2.25 1.29L2.25 1.39L1.72 1.71L0.43 10.50L1.72 10.50L2.13 7.77L4.31 7.77L4.72 10.50L6.01 10.50L4.45 0.01L1.16 0.01ZM8.85 4.55L8.85 1.33L10.11 1.33L10.92 2.14L10.92 3.67L10.18 4.55ZM8.85 5.84L10.30 5.84L11.20 6.72L11.20 8.40L10.39 9.21L8.85 9.21ZM6.82 1.33L8.09 1.33L8.09 1.43L7.56 1.75L7.56 10.50L10.92 10.50L12.49 8.93L12.49 6.13L11.44 5.10L12.21 4.17L12.21 1.61L10.64 0.03L6.82 0.03Z"></path></g><defs data-v-fde0c5aa=""><!----></defs><g data-v-fde0c5aa="" id="0100f243-920e-4e1f-b6df-44ab3f90cfdf" stroke="none" fill="#8be9fd	" transform="matrix(1.4458839219742736,0,0,1.4458839219742736,30.354963388773108,77.16493082912895)"><path d="M67.539 22.815H20.016a1.885 1.885 0 0 1 0-3.77h47.523a1.886 1.886 0 0 1 0 3.77zM38.493 34.586H20.016a1.885 1.885 0 0 1 0-3.771h18.477a1.885 1.885 0 1 1 0 3.771zM54.605 58.169h-34.59a1.884 1.884 0 0 1 0-3.77h34.59a1.886 1.886 0 0 1 0 3.77zM83.118 58.169H63.503a1.884 1.884 0 0 1 0-3.77h19.615a1.886 1.886 0 0 1 0 3.77zM82.701 46.36H20.016a1.885 1.885 0 0 1 0-3.769h62.686a1.885 1.885 0 1 1-.001 3.769zM12.909 27.367c-.496 0-.991-.194-1.361-.582l-4.355-4.552a1.886 1.886 0 0 1-.005-2.6l4.297-4.535a1.886 1.886 0 0 1 2.738 2.594l-3.064 3.232 3.115 3.254a1.889 1.889 0 0 1-.06 2.666 1.888 1.888 0 0 1-1.305.523zM12.909 74.438c-.496 0-.991-.193-1.361-.581l-4.355-4.552a1.888 1.888 0 0 1-.005-2.602l4.297-4.531a1.885 1.885 0 0 1 2.738 2.592l-3.064 3.23 3.115 3.254a1.886 1.886 0 0 1-1.365 3.19zM71.189 86.221a1.885 1.885 0 0 1-1.368-3.183l3.063-3.229-3.113-3.258a1.885 1.885 0 0 1 2.725-2.604l4.354 4.555c.694.726.696 1.869.006 2.599l-4.299 4.534c-.37.387-.869.586-1.368.586zM88.704 62.324a1.885 1.885 0 0 1-1.369-3.182l3.063-3.232-3.112-3.253a1.886 1.886 0 0 1 2.724-2.606l4.354 4.551c.694.725.697 1.869.006 2.599l-4.297 4.534c-.371.393-.87.589-1.369.589zM44.114 69.901H20.016a1.884 1.884 0 1 1 0-3.769h24.098a1.885 1.885 0 1 1 0 3.769zM82.701 69.895H52.978a1.885 1.885 0 1 1 0-3.77h29.724a1.885 1.885 0 1 1-.001 3.77zM65.816 81.679h-45.8a1.886 1.886 0 0 1 0-3.772h45.801a1.885 1.885 0 1 1-.001 3.772z"></path></g><!----></svg>