<svg data-v-fde0c5aa="" xmlns="http://www.w3.org/2000/svg" viewBox="0 0 300 300" class="font"><!----><defs data-v-fde0c5aa=""><!----></defs><rect data-v-fde0c5aa="" fill="#282a36" x="0" y="0" width="300px" height="300px" class="logo-background-square"></rect><defs data-v-fde0c5aa=""><linearGradient data-v-fde0c5aa="" gradientTransform="rotate(25)" id="bee9ed1d-b2bd-457b-8181-27b46a8b87e7" x1="0%" y1="0%" x2="100%" y2="0%"><stop data-v-fde0c5aa="" offset="0%" stop-color="#bd93f9	" stop-opacity="1"></stop><stop data-v-fde0c5aa="" offset="100%" stop-color="#8be9fd	" stop-opacity="1"></stop></linearGradient></defs><g data-v-fde0c5aa="" id="3fb93ce2-9ae0-40b3-a7fa-e9a639bc46a5" fill="url(#bee9ed1d-b2bd-457b-8181-27b46a8b87e7)" transform="matrix(18.24424934387207,0,0,18.24424934387207,32.16067379332687,54.11078717201167)"><path d="M4.13 6.50L2.31 6.50L3.08 1.29L3.35 1.29ZM1.16 1.29L2.25 1.29L2.25 1.39L1.72 1.71L0.43 10.50L1.72 10.50L2.13 7.77L4.31 7.77L4.72 10.50L6.01 10.50L4.45 0.01L1.16 0.01ZM8.85 4.55L8.85 1.33L10.11 1.33L10.92 2.14L10.92 3.67L10.18 4.55ZM8.85 5.84L10.30 5.84L11.20 6.72L11.20 8.40L10.39 9.21L8.85 9.21ZM6.82 1.33L8.09 1.33L8.09 1.43L7.56 1.75L7.56 10.50L10.92 10.50L12.49 8.93L12.49 6.13L11.44 5.10L12.21 4.17L12.21 1.61L10.64 0.03L6.82 0.03Z"></path></g><!----><!----></svg>